<svg width="64" height="64" viewBox="0 0 64 64" fill="none" xmlns="http://www.w3.org/2000/svg">
<path opacity="0.2" d="M42.8948 0H21.1052C19.6221 0 18.139 0.57041 17.1123 1.71123L1.71123 17.1123C0.57041 18.139 0 19.6221 0 21.1052V42.8948C0 44.3779 0.57041 45.861 1.71123 46.8877L17.1123 62.2888C18.139 63.3155 19.6221 64 21.1052 64H42.8948C44.3779 64 45.861 63.4296 46.8877 62.2888L62.2888 46.8877C63.3155 45.861 64 44.3779 64 42.8948V21.1052C64 19.6221 63.4296 18.139 62.2888 17.1123L46.8877 1.71123C45.861 0.57041 44.3779 0 42.8948 0Z" fill="#682AE9"/>
<path d="M46.4 20.8H42.48C41.84 19.2 40.24 18 38.4 18C36.56 18 34.96 19.2 34.32 20.8H17.6C16.72 20.8 16 21.52 16 22.4C16 23.28 16.72 24 17.6 24H34.32C34.96 25.6 36.56 26.8 38.4 26.8C40.24 26.8 41.84 25.6 42.48 24H46.4C47.28 24 48 23.28 48 22.4C48 21.52 47.28 20.8 46.4 20.8ZM38.4 24.4C37.28 24.4 36.4 23.52 36.4 22.4C36.4 21.28 37.28 20.4 38.4 20.4C39.52 20.4 40.4 21.28 40.4 22.4C40.4 23.52 39.52 24.4 38.4 24.4Z" fill="#682AE9"/>
<path d="M46.4 30.4H26.48C25.84 28.8 24.24 27.6 22.4 27.6C20.56 27.6 18.96 28.8 18.32 30.4H17.6C16.72 30.4 16 31.12 16 32C16 32.88 16.72 33.6 17.6 33.6H18.32C18.96 35.2 20.56 36.4 22.4 36.4C24.24 36.4 25.84 35.2 26.48 33.6H46.4C47.28 33.6 48 32.88 48 32C48 31.12 47.28 30.4 46.4 30.4ZM22.4 34C21.28 34 20.4 33.12 20.4 32C20.4 30.88 21.28 30 22.4 30C23.52 30 24.4 30.88 24.4 32C24.4 33.12 23.52 34 22.4 34Z" fill="#682AE9"/>
<path d="M46.4 40H37.68C37.04 38.4 35.44 37.2 33.6 37.2C31.76 37.2 30.16 38.4 29.52 40H17.6C16.72 40 16 40.72 16 41.6C16 42.48 16.72 43.2 17.6 43.2H29.52C30.16 44.8 31.76 46 33.6 46C35.44 46 37.04 44.8 37.68 43.2H46.4C47.28 43.2 48 42.48 48 41.6C48 40.72 47.28 40 46.4 40ZM33.6 43.6C32.48 43.6 31.6 42.72 31.6 41.6C31.6 40.48 32.48 39.6 33.6 39.6C34.72 39.6 35.6 40.48 35.6 41.6C35.6 42.72 34.72 43.6 33.6 43.6Z" fill="#682AE9"/>
</svg>
