<svg width="64" height="64" viewBox="0 0 64 64" fill="none" xmlns="http://www.w3.org/2000/svg">
<path opacity="0.2" d="M42.8948 0H21.1052C19.6221 0 18.139 0.57041 17.1123 1.71123L1.71123 17.1123C0.57041 18.139 0 19.6221 0 21.1052V42.8948C0 44.3779 0.57041 45.861 1.71123 46.8877L17.1123 62.2888C18.139 63.3155 19.6221 64 21.1052 64H42.8948C44.3779 64 45.861 63.4296 46.8877 62.2888L62.2888 46.8877C63.3155 45.861 64 44.3779 64 42.8948V21.1052C64 19.6221 63.4296 18.139 62.2888 17.1123L46.8877 1.71123C45.861 0.57041 44.3779 0 42.8948 0Z" fill="#682AE9"/>
<g clip-path="url(#clip0)">
<path d="M46.5959 19.7464C46.2837 19.3561 45.9715 19.0439 45.7374 18.7317C44.2545 17.1707 42.3033 15.6878 40.1959 16.0781C38.7911 16.3122 37.6984 17.4049 36.6837 18.4195C33.4837 21.6195 30.2837 24.8195 27.0837 28.0195C25.5228 29.6586 23.8837 31.2195 22.3228 32.8586C21.5423 33.639 20.6057 34.4195 19.9033 35.2781C19.3569 36.0586 19.1228 37.3073 18.8106 38.1659C17.952 40.7415 17.0935 43.3171 16.235 45.8927C16.0008 46.439 15.8447 47.2195 16.313 47.6878C16.7813 48.1561 17.5618 48 18.1862 47.7659C21.074 46.8293 23.9618 45.8927 26.8496 44.8781C27.474 44.6439 28.1764 44.4098 28.7228 44.0976C29.1911 43.7854 29.5813 43.3951 29.9715 43.0049C35.2008 37.7756 40.4301 32.5464 45.6593 27.3171C46.752 26.2244 47.8447 25.0537 48.0789 23.5707C48.1569 22.1659 47.4545 20.839 46.5959 19.7464ZM25.6789 42.6927L19.2008 44.8781L21.3862 38.4L25.6789 42.6927ZM42.3813 27.0049L28.0203 41.4439L22.5569 35.9805L36.9959 21.6195L42.3813 27.0049ZM44.8008 24.5854L44.1764 25.2098L38.713 19.7464L39.4154 19.2C40.274 18.3415 41.6789 18.3415 42.5374 19.2L44.8789 21.5415C45.6593 22.4 45.6594 23.7268 44.8008 24.5854Z" fill="#682AE9"/>
</g>
<defs>
<clipPath id="clip0">
<rect width="32" height="32" fill="white" transform="translate(16 16)"/>
</clipPath>
</defs>
</svg>
