<svg width="40" height="40" viewBox="0 0 40 40" fill="none" xmlns="http://www.w3.org/2000/svg">
<path d="M26.8093 0H13.1907C12.2638 0 11.3369 0.356506 10.6952 1.06952L1.06952 10.6952C0.356506 11.3369 0 12.2638 0 13.1907V26.8093C0 27.7362 0.356506 28.6631 1.06952 29.3048L10.6952 38.9305C11.3369 39.5722 12.2638 40 13.1907 40H26.8093C27.7362 40 28.6631 39.6435 29.3048 38.9305L38.9305 29.3048C39.5722 28.6631 40 27.7362 40 26.8093V13.1907C40 12.2638 39.6435 11.3369 38.9305 10.6952L29.3048 1.06952C28.6631 0.356506 27.7362 0 26.8093 0Z" fill="#682AE9"/>
<path d="M19.588 14.452C18.8947 14.452 18.392 14.296 18.08 13.984C17.7853 13.672 17.638 13.2733 17.638 12.788V12.268C17.638 11.7827 17.7853 11.384 18.08 11.072C18.392 10.76 18.8947 10.604 19.588 10.604C20.264 10.604 20.758 10.76 21.07 11.072C21.382 11.384 21.538 11.7827 21.538 12.268V12.788C21.538 13.2733 21.382 13.672 21.07 13.984C20.758 14.296 20.264 14.452 19.588 14.452ZM17.924 16.428H21.252V30H17.924V16.428Z" fill="white"/>
</svg>
