<svg width="16" height="16" viewBox="0 0 16 16" fill="none" xmlns="http://www.w3.org/2000/svg">
<path d="M16 10.64C16 11.04 15.84 11.52 15.52 11.84L11.84 15.52C11.52 15.84 11.12 16 10.64 16H5.36C4.96 16 4.48 15.84 4.16 15.52L0.48 11.84C0.16 11.52 0 11.04 0 10.64V5.36C0 4.96 0.16 4.48 0.48 4.16L4.16 0.48C4.48 0.16 4.96 0 5.36 0H10.64C11.04 0 11.52 0.16 11.84 0.48L15.52 4.16C15.84 4.48 16 4.96 16 5.36V10.64Z" fill="white"/>
<path d="M11.0404 5.4398C10.6404 5.0398 10.1604 4.7998 9.60039 4.7998C9.20039 4.7998 8.80039 4.9598 8.48039 5.1998C8.32039 5.3598 8.16039 5.5198 8.00039 5.6798C7.84039 5.4398 7.68039 5.2798 7.52039 5.1998C7.20039 4.8798 6.80039 4.7998 6.40039 4.7998C5.84039 4.7998 5.36039 5.0398 4.96039 5.4398C4.56039 5.8398 4.40039 6.3998 4.40039 6.9598C4.40039 7.5998 4.64039 8.1598 5.12039 8.7198C5.52039 9.2798 6.16039 9.7598 6.88039 10.3998C7.12039 10.6398 7.44039 10.8798 7.68039 11.1198C7.76039 11.1998 7.92039 11.1998 8.00039 11.1998C8.08039 11.1998 8.24039 11.1998 8.24039 11.1198C8.56039 10.8798 8.80039 10.6398 9.04039 10.3998C9.76039 9.7598 10.4004 9.2798 10.8004 8.7198C11.2804 8.1598 11.5204 7.5998 11.5204 6.9598C11.6004 6.3998 11.4404 5.8398 11.0404 5.4398Z" fill="#EF660D"/>
</svg>
