<svg fill="none" height="16" viewBox="0 0 10 16" width="10" xmlns="http://www.w3.org/2000/svg"><path d="m.554578 8.62432 7.120202 7.12008c.16468.1648.38452.2556.61892.2556.23441 0 .45424-.0908.61892-.2556l.52436-.5242c.3412-.3416.3412-.8968 0-1.2379l-5.97901-5.97898 5.98564-5.98564c.16468-.16482.25561-.38452.25561-.6188 0-.23453-.09093-.454237-.25561-.619179l-.52435-.524093c-.16481-.1648116-.38452-.25560715-.61892-.25560717-.23441-.00000002-.45424.09079547-.61892.25560617l-7.126841 7.126573c-.165073.16534-.255738.38608-.255218.62075-.00052.23557.090145.45619.255217.62139z" fill="#fff"/></svg>