<svg width="24" height="24" viewBox="0 0 24 24" fill="none" xmlns="http://www.w3.org/2000/svg">
<path d="M23.7068 22.2935L16.8818 15.4686C18.2038 13.8356 18.9998 11.7606 18.9998 9.50065C18.9998 4.26271 14.7378 0.000732422 9.49988 0.000732422C4.26193 0.000732422 0 4.26266 0 9.50061C0 14.7386 4.26197 19.0005 9.49992 19.0005C11.7599 19.0005 13.8349 18.2046 15.4678 16.8825L22.2928 23.7075C22.4878 23.9025 22.7438 24.0005 22.9998 24.0005C23.2558 24.0005 23.5118 23.9025 23.7068 23.7075C24.0978 23.3165 24.0978 22.6845 23.7068 22.2935ZM9.49992 17.0005C5.36395 17.0005 2 13.6366 2 9.50061C2 5.36463 5.36395 2.00068 9.49992 2.00068C13.6359 2.00068 16.9998 5.36463 16.9998 9.50061C16.9998 13.6366 13.6359 17.0005 9.49992 17.0005Z" fill="white"/>
</svg>
