<svg width="155" height="56" viewBox="0 0 155 56" fill="none" xmlns="http://www.w3.org/2000/svg">
<path d="M89.208 17.72L83.712 26.432L86.16 35H81.6L79.8 28.664H77.904L76.776 35H72.456L75.504 17.72H79.824L78.552 24.92H80.088L84.648 17.72H89.208ZM99.5179 31.304C99.5179 31.72 99.7259 31.928 100.142 31.928C100.574 31.928 100.934 31.848 101.222 31.688L101.102 34.4C100.334 35.024 99.4699 35.336 98.5099 35.336C96.7019 35.336 95.7179 34.64 95.5579 33.248C94.5979 34.64 93.3019 35.336 91.6699 35.336C90.0539 35.336 89.0059 34.968 88.5259 34.232C88.2059 33.768 88.0459 33.24 88.0459 32.648C88.0459 32.056 88.0939 31.512 88.1899 31.016L89.5339 23.456H93.6139L92.4859 29.84C92.4379 30.128 92.4139 30.416 92.4139 30.704C92.4139 31.472 92.8459 31.856 93.7099 31.856C94.4299 31.856 95.0059 31.608 95.4379 31.112L96.8059 23.456H100.886L99.5419 31.016C99.5259 31.112 99.5179 31.208 99.5179 31.304ZM114.356 25.904C114.356 26.448 114.26 26.976 114.068 27.488C113.892 28 113.716 28.376 113.54 28.616L113.276 28.952H109.652C110.052 28.584 110.252 28.128 110.252 27.584C110.252 27.296 110.156 27.064 109.964 26.888C109.788 26.696 109.54 26.6 109.22 26.6C108.676 26.6 108.204 26.872 107.804 27.416L106.46 35H102.38L104.42 23.456H108.212L107.924 25.064C108.836 23.768 109.94 23.12 111.236 23.12C112.276 23.12 113.052 23.368 113.564 23.864C114.092 24.36 114.356 25.04 114.356 25.904ZM122.22 23.12C123.948 23.12 125.252 23.496 126.132 24.248C126.82 24.84 127.164 25.664 127.164 26.72C127.164 27.072 127.124 27.456 127.044 27.872L126.54 30.68C126.236 32.376 125.524 33.576 124.404 34.28C123.3 34.984 121.82 35.336 119.964 35.336C118.108 35.336 116.748 34.984 115.884 34.28C115.244 33.752 114.924 32.96 114.924 31.904C114.924 31.536 114.964 31.128 115.044 30.68L115.548 27.872C116.108 24.704 118.332 23.12 122.22 23.12ZM122.868 28.352C122.9 28.192 122.916 27.992 122.916 27.752C122.916 27.496 122.812 27.216 122.604 26.912C122.396 26.608 122.028 26.456 121.5 26.456C120.988 26.456 120.556 26.632 120.204 26.984C119.852 27.32 119.628 27.776 119.532 28.352L119.22 30.152C119.188 30.312 119.172 30.52 119.172 30.776C119.172 31.016 119.276 31.28 119.484 31.568C119.692 31.856 120.052 32 120.564 32C121.092 32 121.532 31.824 121.884 31.472C122.236 31.104 122.46 30.664 122.556 30.152L122.868 28.352ZM133.439 35.336C130.111 35.336 128.447 34.184 128.447 31.88C128.447 31.56 128.479 31.216 128.543 30.848L129.047 27.872C129.303 26.336 129.999 25.16 131.135 24.344C132.287 23.528 133.743 23.112 135.503 23.096C138.911 23.096 140.615 24.28 140.615 26.648C140.615 27.16 140.551 27.624 140.423 28.04C140.311 28.44 140.191 28.712 140.062 28.856L139.871 29.096H135.791C136.191 28.744 136.391 28.328 136.391 27.848C136.391 26.984 135.959 26.552 135.095 26.552C134.583 26.552 134.143 26.704 133.775 27.008C133.407 27.312 133.167 27.776 133.055 28.4L132.743 30.152C132.711 30.312 132.695 30.464 132.695 30.608C132.695 31.456 133.223 31.88 134.279 31.88C134.631 31.88 134.943 31.768 135.215 31.544C135.503 31.32 135.671 31.072 135.719 30.8L139.703 30.848C139.175 33.84 137.087 35.336 133.439 35.336ZM148.962 23.12C150.69 23.12 151.994 23.496 152.874 24.248C153.562 24.84 153.906 25.664 153.906 26.72C153.906 27.072 153.866 27.456 153.786 27.872L153.282 30.68C152.978 32.376 152.266 33.576 151.146 34.28C150.042 34.984 148.562 35.336 146.706 35.336C144.85 35.336 143.49 34.984 142.626 34.28C141.986 33.752 141.666 32.96 141.666 31.904C141.666 31.536 141.706 31.128 141.786 30.68L142.29 27.872C142.85 24.704 145.074 23.12 148.962 23.12ZM149.61 28.352C149.642 28.192 149.658 27.992 149.658 27.752C149.658 27.496 149.554 27.216 149.346 26.912C149.138 26.608 148.77 26.456 148.242 26.456C147.73 26.456 147.298 26.632 146.946 26.984C146.594 27.32 146.37 27.776 146.274 28.352L145.962 30.152C145.93 30.312 145.914 30.52 145.914 30.776C145.914 31.016 146.018 31.28 146.226 31.568C146.434 31.856 146.794 32 147.306 32C147.834 32 148.274 31.824 148.626 31.472C148.978 31.104 149.202 30.664 149.298 30.152L149.61 28.352Z" fill="white"/>
<path d="M37.2038 0H18.79C17.2602 0 15.7931 0.608218 14.7085 1.68671L1.68652 14.7101C0.60815 15.7949 0 17.2621 0 18.7921V37.2079C0 38.7379 0.60815 40.2051 1.68652 41.2899L14.7085 54.3133C15.7931 55.3981 17.2602 56 18.79 56H37.2038C38.7335 56 40.2006 55.3918 41.2853 54.3133L54.3072 41.2899C55.3919 40.2051 55.9937 38.7379 55.9937 37.2079V18.7921C55.9937 17.2621 55.3856 15.7949 54.3072 14.7101L41.279 1.68671C40.2006 0.608218 38.7335 0 37.2038 0Z" fill="white"/>
<path d="M40.6126 54.8902C39.5091 55.6238 38.763 55.6614 38.0044 55.1786C37.8351 55.072 37.647 54.8777 37.553 54.7209C37.459 54.5516 37.1768 53.6738 36.8633 52.5388C36.3869 50.802 36.3242 50.6264 36.1925 50.5888C35.8728 50.4885 33.4715 50.3004 31.0389 50.1875L30.2427 50.1499L30.4621 50.5449C30.9449 51.3914 31.39 52.4573 31.7787 53.6988C31.9292 54.1817 32.0295 54.5955 32.0107 54.6206C31.9605 54.6707 29.1706 55.4357 29.1392 55.4106C29.1267 55.3981 29.0201 55.0595 28.901 54.6582C28.3869 52.9652 27.7912 51.799 26.8633 50.6452L26.4746 50.1561L26.2928 50.2502C26.0483 50.3756 25.4652 51.034 25.064 51.6359C24.6565 52.2504 24.0922 53.4167 23.6909 54.4826C23.5279 54.9153 23.3775 55.2915 23.3524 55.3166C23.3148 55.3542 20.6502 54.4137 20.5373 54.3196C20.4496 54.2569 21.7097 51.3538 22.1988 50.4634C22.2113 50.4446 22.1423 50.4383 22.0483 50.4446C21.948 50.4571 21.2959 50.5261 20.5875 50.5951C19.879 50.664 19.2458 50.7518 19.1706 50.7769C19.0326 50.8396 18.9449 51.0591 18.2615 52.9966C17.8163 54.2694 17.7787 54.351 17.4402 54.6331C16.9386 55.0658 16.1423 55.2852 15.5342 54.9843C15.5342 54.9843 16.8383 56.0126 18.9072 56C21.5405 55.9875 37.5718 56 37.5718 56C37.5718 56 39.1706 55.9499 40.6126 54.8902ZM29.0514 18.1149C34.0734 18.372 36.9699 19.3439 37.8101 21.0557C37.9668 21.3629 37.9856 21.4758 37.9856 22.0025C37.9856 22.548 37.9668 22.6358 37.7787 23.0183C37.5279 23.5262 36.9511 24.0905 36.3116 24.4417C35.0138 25.1627 32.9072 25.5327 30.9323 25.3885C29.3085 25.2693 28.2427 25.0123 26.8822 24.3915C26.5624 24.2536 26.2489 24.1344 26.1737 24.1344C26.0985 24.1344 25.7787 24.2473 25.459 24.379C24.0985 24.9621 22.8759 25.1753 21.1831 25.1189C18.7191 25.0373 17.0828 24.3225 16.4934 23.081C16.3242 22.7111 16.3116 22.6421 16.343 22.2032C16.506 19.9208 18.3054 18.7232 22.2489 18.2717C24.017 18.071 26.8759 18.0021 29.0514 18.1149ZM49.5593 46.0554C49.5342 46.0365 49.1079 45.8986 48.832 45.7983C47.5844 45.3594 46.575 44.7762 44.9135 43.5472C42.6126 41.8292 41.647 41.3464 39.9981 41.083C39.459 40.9952 39.2583 40.9952 38.6439 41.0579C37.9229 41.1269 37.2771 41.2649 36.5185 41.5157L36.1173 41.6473L36.1612 42.312C36.18 42.6757 36.2176 44.005 36.2427 45.259L36.2803 47.5414L36.0044 47.4975C35.8539 47.4787 35.2082 47.416 34.5687 47.3659C30.0483 47.0022 24.6941 47.0837 20.2113 47.5853C19.6094 47.6543 19.0891 47.7107 19.0577 47.7107C18.995 47.7107 19.0514 44.9079 19.1455 43.3529C19.3837 39.6346 19.8916 37.1704 20.6565 36.0793C20.7944 35.8849 20.901 35.7156 20.8884 35.7031C20.8759 35.6968 20.6878 35.6028 20.4621 35.4962C20.2364 35.3896 19.7536 35.1262 19.39 34.9068C16.1612 32.963 14.0796 29.809 13.5906 26.1221C13.4527 25.1 13.5028 23.2315 13.6847 22.1342C14.5311 17.1744 17.2959 13.1802 21.4966 10.8602C22.995 10.0263 25.1517 9.41177 27.8602 9.04182C28.8445 8.91014 31.6408 8.89133 32.6251 9.01047C36.7756 9.52463 40.4307 11.274 43.4966 14.2085C44.1423 14.8293 44.2991 15.124 44.3054 15.6946C44.3116 16.3655 44.1549 16.6038 43.0514 17.6572C41.7536 18.8925 41.3398 19.4819 41.3398 20.1214C41.3398 20.2531 41.4088 20.6795 41.4903 21.0745C42.0734 23.777 42.0107 26.0719 41.296 28.3042C41.0452 29.0817 40.5561 30.1476 40.1298 30.8436C39.9731 31.1007 39.8539 31.3202 39.8602 31.3264C39.8728 31.339 40.2427 31.3014 40.6878 31.2512C42.8007 31.0067 44.738 31.2261 46.6 31.9221C47.4151 32.2294 48.4245 32.4927 49.3649 32.6432C49.9417 32.731 50.437 32.7561 51.8728 32.7561C53.6282 32.7498 54.6502 32.593 55.9981 32.3548C55.9981 32.3548 55.9919 36.3176 55.9919 37.0888C55.9919 37.8601 55.8665 38.4244 55.8665 38.4244C53.4527 39.0389 50.4746 38.8759 48.6314 38.2739C48.274 38.1548 47.4339 37.835 46.7568 37.5528C44.7693 36.7252 43.7599 36.4493 42.2803 36.2988C41.4464 36.2173 40.6439 36.2235 40.1925 36.3239C39.6659 36.4367 39.6784 36.4869 40.2427 36.4869C41.3085 36.4869 42.6314 36.7816 43.8978 37.2958C44.8445 37.6782 45.5028 38.0357 46.6815 38.8194C48.9511 40.3243 51.0891 41.1645 54.3681 41.2272L49.5593 46.0554ZM24.8195 36.8631C25.2395 36.9321 26.1549 37.0261 26.8633 37.07L28.1486 37.1453L26.7693 38.8508C26.0044 39.7851 25.3712 40.5563 25.3524 40.5563C25.3336 40.5626 25.1267 40.1174 24.901 39.5719C24.669 39.0326 24.2991 38.1548 24.0734 37.6218L23.6659 36.6562L23.8665 36.6938C23.9793 36.7126 24.4057 36.7879 24.8195 36.8631Z" fill="#0F1015"/>
<path d="M29.1283 18.0585C34.1502 18.3156 37.0468 19.2875 37.8869 20.9993C38.0436 21.3066 38.0625 21.4194 38.0625 21.9461C38.0625 22.4916 38.0436 22.5794 37.8556 22.9619C37.6048 23.4698 37.028 24.0341 36.3885 24.3853C35.0907 25.1064 32.9841 25.4763 31.0092 25.3321C29.3853 25.213 28.3195 24.9559 26.959 24.3351C26.6393 24.1972 26.3258 24.078 26.2505 24.078C26.1753 24.078 25.8556 24.1909 25.5358 24.3226C24.1753 24.9057 22.9527 25.1189 21.26 25.0625C18.796 24.981 17.1596 24.2661 16.5703 23.0246C16.401 22.6547 16.3885 22.5857 16.4198 22.1468C16.5828 19.8644 18.3822 18.6668 22.3258 18.2153C24.0938 18.0146 26.9527 17.9457 29.1283 18.0585Z" fill="white"/>
<path d="M24.8216 36.8632C25.2416 36.9321 26.157 37.0262 26.8655 37.0701L28.1507 37.1453L26.7714 38.8508C26.0065 39.7851 25.3733 40.5563 25.3545 40.5563C25.3357 40.5626 25.1288 40.1174 24.9031 39.5719C24.6711 39.0327 24.3012 38.1548 24.0755 37.6219L23.668 36.6562L23.8686 36.6939C23.9814 36.7127 24.4078 36.7879 24.8216 36.8632Z" fill="white"/>
<path d="M20.5823 19.9897C20.1183 20.2091 19.855 20.4788 19.6356 20.9616C19.4914 21.2876 19.4726 21.3817 19.4976 21.8394C19.5415 22.6232 19.8989 23.1687 20.5823 23.5073C21.0211 23.7205 21.7547 23.7268 22.2249 23.5136C22.6073 23.3443 23.0149 22.9305 23.203 22.5166C23.4098 22.0652 23.391 21.3315 23.1653 20.8863C22.6638 19.9207 21.5415 19.5319 20.5823 19.9897Z" fill="#0F1015"/>
<path d="M30.7222 19.9144C30.3523 20.0461 29.8131 20.554 29.6564 20.9239C29.2301 21.9209 29.6188 23.0245 30.5718 23.4885C30.8727 23.6389 31.0106 23.664 31.4307 23.664C31.8508 23.664 31.9887 23.6389 32.2896 23.4885C33.2301 23.0307 33.6439 21.8394 33.1925 20.9114C32.9856 20.485 32.5028 20.0398 32.1078 19.9081C31.7442 19.7827 31.0796 19.789 30.7222 19.9144Z" fill="#0F1015"/>
<path d="M129.112 40.36C130.16 40.36 130.908 40.624 131.356 41.152C131.684 41.552 131.848 42.052 131.848 42.652C131.848 42.868 131.828 43.096 131.788 43.336L131.32 46.012C131.16 46.916 130.768 47.64 130.144 48.184C129.52 48.728 128.712 49 127.72 49H124.228L125.752 40.36H129.112ZM128.356 42.232H127.576L126.724 47.128H127.864C128.24 47.128 128.532 47.028 128.74 46.828C128.956 46.62 129.104 46.284 129.184 45.82L129.532 43.852C129.564 43.676 129.58 43.516 129.58 43.372C129.58 42.612 129.172 42.232 128.356 42.232ZM135.879 43.06C136.743 43.06 137.395 43.248 137.835 43.624C138.179 43.92 138.351 44.332 138.351 44.86C138.351 45.036 138.331 45.228 138.291 45.436L138.039 46.84C137.887 47.688 137.531 48.288 136.971 48.64C136.419 48.992 135.679 49.168 134.751 49.168C133.823 49.168 133.143 48.992 132.711 48.64C132.391 48.376 132.231 47.98 132.231 47.452C132.231 47.268 132.251 47.064 132.291 46.84L132.543 45.436C132.823 43.852 133.935 43.06 135.879 43.06ZM136.203 45.676C136.219 45.596 136.227 45.496 136.227 45.376C136.227 45.248 136.175 45.108 136.071 44.956C135.967 44.804 135.783 44.728 135.519 44.728C135.263 44.728 135.047 44.816 134.871 44.992C134.695 45.16 134.583 45.388 134.535 45.676L134.379 46.576C134.363 46.656 134.355 46.76 134.355 46.888C134.355 47.008 134.407 47.14 134.511 47.284C134.615 47.428 134.795 47.5 135.051 47.5C135.315 47.5 135.535 47.412 135.711 47.236C135.887 47.052 135.999 46.832 136.047 46.576L136.203 45.676ZM141.489 49.168C139.825 49.168 138.993 48.592 138.993 47.44C138.993 47.28 139.009 47.108 139.041 46.924L139.293 45.436C139.421 44.668 139.769 44.08 140.337 43.672C140.913 43.264 141.641 43.056 142.521 43.048C144.225 43.048 145.077 43.64 145.077 44.824C145.077 45.08 145.045 45.312 144.981 45.52C144.925 45.72 144.865 45.856 144.801 45.928L144.705 46.048H142.665C142.865 45.872 142.965 45.664 142.965 45.424C142.965 44.992 142.749 44.776 142.317 44.776C142.061 44.776 141.841 44.852 141.657 45.004C141.473 45.156 141.353 45.388 141.297 45.7L141.141 46.576C141.125 46.656 141.117 46.732 141.117 46.804C141.117 47.228 141.381 47.44 141.909 47.44C142.085 47.44 142.241 47.384 142.377 47.272C142.521 47.16 142.605 47.036 142.629 46.9L144.621 46.924C144.357 48.42 143.313 49.168 141.489 49.168ZM151.662 44.476C151.662 44.74 151.582 44.984 151.422 45.208H149.454C149.518 45.16 149.55 45.08 149.55 44.968C149.55 44.856 149.486 44.768 149.358 44.704C149.23 44.632 149.066 44.596 148.866 44.596C148.266 44.596 147.966 44.78 147.966 45.148C147.966 45.292 148.078 45.396 148.302 45.46C148.526 45.524 148.798 45.576 149.118 45.616C149.438 45.656 149.758 45.716 150.078 45.796C150.398 45.868 150.67 46.016 150.894 46.24C151.118 46.464 151.23 46.764 151.23 47.14C151.23 47.804 150.962 48.308 150.426 48.652C149.898 48.996 149.126 49.168 148.11 49.168C147.094 49.168 146.382 49.004 145.974 48.676C145.654 48.42 145.494 48.068 145.494 47.62C145.494 47.492 145.506 47.36 145.53 47.224L147.534 47.2C147.518 47.312 147.582 47.412 147.726 47.5C147.878 47.58 148.098 47.62 148.386 47.62C148.674 47.62 148.882 47.592 149.01 47.536C149.138 47.472 149.202 47.356 149.202 47.188C149.202 47.076 149.09 47 148.866 46.96C148.642 46.912 148.366 46.872 148.038 46.84C147.718 46.808 147.394 46.756 147.066 46.684C146.746 46.612 146.474 46.46 146.25 46.228C146.026 45.996 145.914 45.692 145.914 45.316C145.914 44.588 146.194 44.028 146.754 43.636C147.322 43.244 148.138 43.048 149.202 43.048C150.842 43.048 151.662 43.524 151.662 44.476Z" fill="#EF660D"/>
</svg>
