<svg width="64" height="64" viewBox="0 0 64 64" fill="none" xmlns="http://www.w3.org/2000/svg">
<path opacity="0.2" d="M42.8948 0H21.1052C19.6221 0 18.139 0.57041 17.1123 1.71123L1.71123 17.1123C0.57041 18.139 0 19.6221 0 21.1052V42.8948C0 44.3779 0.57041 45.861 1.71123 46.8877L17.1123 62.2888C18.139 63.3155 19.6221 64 21.1052 64H42.8948C44.3779 64 45.861 63.4296 46.8877 62.2888L62.2888 46.8877C63.3155 45.861 64 44.3779 64 42.8948V21.1052C64 19.6221 63.4296 18.139 62.2888 17.1123L46.8877 1.71123C45.861 0.57041 44.3779 0 42.8948 0Z" fill="#682AE9"/>
<g clip-path="url(#clip0)">
<path d="M34.6739 38.5651C34.6739 38.8201 34.7589 39.0751 34.9289 39.3301L34.2489 40.8601C33.9939 41.3701 34.2489 42.0501 34.8439 42.3051C35.0139 42.3901 35.0989 42.3901 35.2689 42.3901C35.4389 42.3901 35.5239 42.3901 35.6939 42.3051C35.9489 42.2201 36.2039 41.9651 36.2889 41.7101L37.1389 39.6701H40.3689L41.2189 41.7101C41.4739 42.2201 42.1539 42.4751 42.6639 42.3051C42.9189 42.2201 43.1738 41.9651 43.2588 41.7101C43.3438 41.4551 43.3438 41.1151 43.2588 40.8601L42.5788 39.3301C42.7488 39.1601 42.8338 38.9051 42.8338 38.5651C42.8338 37.9701 42.3239 37.4601 41.7289 37.4601L39.6889 32.8701C39.5189 32.4451 39.0939 32.1901 38.6689 32.1901C38.2439 32.1901 37.8189 32.4451 37.6489 32.8701L35.6089 37.4601C35.1839 37.4601 34.6739 37.9701 34.6739 38.5651ZM38.1589 37.4601L38.8389 36.0151L39.5189 37.4601H38.1589Z" fill="#682AE9"/>
<path d="M49.0391 27.515H35.5241C35.5241 27.26 35.6091 27.09 35.6091 26.835C36.0341 23.265 34.8441 19.865 32.3791 17.315C29.9141 14.85 26.4291 13.66 22.8591 14.085C17.5891 14.765 13.5091 19.015 12.9991 24.285C12.8291 26.41 13.1691 28.535 14.1041 30.405L13.0841 33.635C12.9141 34.23 13.0841 34.825 13.5091 35.25C13.9341 35.675 14.5291 35.845 15.1241 35.59L17.8441 34.655C19.7141 36.015 22.0091 36.695 24.3041 36.695C24.6441 36.695 24.8991 36.695 25.2391 36.695C25.6641 36.695 26.0041 36.61 26.4291 36.525V44.94C26.4291 46.13 27.3641 47.065 28.5541 47.065H39.1791L43.2591 49.785C43.5141 49.955 43.8541 50.04 44.1941 50.04C44.4491 50.04 44.7041 49.955 44.9591 49.87C45.5541 49.615 45.8941 49.02 45.8941 48.34V46.98H48.8691C50.0591 46.98 50.9941 46.045 50.9941 44.855V29.555C51.1641 28.45 50.1441 27.515 49.0391 27.515ZM25.1541 34.4C22.8591 34.57 20.6491 33.89 18.8641 32.53L18.3541 32.105L15.8891 32.955L16.7391 30.15L16.4841 29.725C15.6341 28.11 15.2091 26.325 15.3791 24.54C15.8041 20.375 19.0341 16.975 23.1991 16.465C26.0041 16.125 28.7241 17.06 30.7641 19.015C32.7191 20.97 33.6541 23.775 33.3141 26.58C32.8041 30.745 29.3191 34.06 25.1541 34.4ZM48.6141 44.515H43.5141V46.81L40.1141 44.515H29.0641V35.76C31.6141 34.655 33.6541 32.615 34.7591 30.065H48.6141V44.515Z" fill="#682AE9"/>
<path d="M29.0651 23.86C29.0651 23.265 28.5551 22.755 27.9601 22.755H25.3251V20.375C25.3251 19.78 24.8151 19.27 24.2201 19.27C23.6251 19.27 23.2001 19.78 23.2001 20.375V22.755H21.2451C20.6501 22.755 20.1401 23.265 20.1401 23.86C20.1401 24.455 20.6501 24.965 21.2451 24.965H23.0301C22.6051 26.58 21.5851 27.94 20.1401 28.705C19.8851 28.875 19.7151 29.045 19.6301 29.385C19.5451 29.725 19.5451 29.98 19.7151 30.235C19.9701 30.745 20.6501 30.915 21.1601 30.66C22.4351 29.98 23.5401 28.875 24.2201 27.685C24.9851 28.96 26.0051 29.98 27.2801 30.66C27.45 30.745 27.6201 30.83 27.7901 30.83C28.2151 30.83 28.5551 30.575 28.7251 30.235C28.8951 29.98 28.8951 29.725 28.8101 29.385C28.7251 29.045 28.5551 28.875 28.3001 28.705C26.8551 27.94 25.8351 26.495 25.4101 24.965H27.8751C28.5551 24.88 29.0651 24.455 29.0651 23.86Z" fill="#682AE9"/>
</g>
<defs>
<clipPath id="clip0">
<rect width="38.165" height="36.125" fill="white" transform="translate(13 14)"/>
</clipPath>
</defs>
</svg>
