<svg width="64" height="64" viewBox="0 0 64 64" fill="none" xmlns="http://www.w3.org/2000/svg">
<path opacity="0.2" d="M42.8948 0H21.1052C19.6221 0 18.139 0.57041 17.1123 1.71123L1.71123 17.1123C0.57041 18.139 0 19.6221 0 21.1052V42.8948C0 44.3779 0.57041 45.861 1.71123 46.8877L17.1123 62.2888C18.139 63.3155 19.6221 64 21.1052 64H42.8948C44.3779 64 45.861 63.4296 46.8877 62.2888L62.2888 46.8877C63.3155 45.861 64 44.3779 64 42.8948V21.1052C64 19.6221 63.4296 18.139 62.2888 17.1123L46.8877 1.71123C45.861 0.57041 44.3779 0 42.8948 0Z" fill="#682AE9"/>
<g clip-path="url(#clip0)">
<path d="M53.4 40.2C53.4 28.28 43.56 18.68 31.56 19C20.04 19.32 11 29.08 11 40.68C11 41.08 11.32 41.4 11.72 41.4H27.88C28.28 43.48 30.04 45 32.2 45C34.36 45 36.12 43.48 36.52 41.4H52.68C53.08 41.4 53.4 41.08 53.4 40.68V40.2ZM32.2 42.6C31.08 42.6 30.2 41.72 30.2 40.6C30.2 39.48 31.08 38.6 32.2 38.6C33.32 38.6 34.2 39.48 34.2 40.6C34.2 41.72 33.32 42.6 32.2 42.6ZM34.12 24.36L34.36 21.56C36.68 21.8 38.84 22.52 40.76 23.48L39.32 25.8C39.08 26.2 39.24 26.68 39.56 26.92C39.8 27.08 40.04 27.16 40.2 27.32C40.6 27.56 41.08 27.4 41.32 27.08L42.76 24.76C44.76 26.12 46.52 27.88 47.8 29.96L45.4 31.32C45 31.56 44.84 32.04 45.08 32.44C45.24 32.68 45.32 32.92 45.48 33.16C45.72 33.56 46.2 33.72 46.6 33.48L49 32.04C50.04 34.2 50.68 36.52 50.84 39.08H36.28C36.04 38.44 35.64 37.88 35.08 37.4L37.16 34.04C37.4 33.64 37.24 33.16 36.92 32.92L36.2 32.52C35.8 32.28 35.32 32.44 35.08 32.76L32.84 36.36C32.6 36.36 32.36 36.28 32.12 36.28C30.28 36.28 28.68 37.48 28.04 39.08H13.4C13.56 36.36 14.28 33.8 15.48 31.56L17.72 33.08C18.12 33.32 18.6 33.24 18.84 32.84C19 32.6 19.08 32.44 19.24 32.2C19.48 31.8 19.4 31.32 19 31.08L16.68 29.48C18.04 27.48 19.8 25.8 21.8 24.52L23 27C23.24 27.4 23.72 27.56 24.12 27.32C24.36 27.16 24.52 27.08 24.76 26.92C25.16 26.68 25.32 26.28 25.08 25.88L23.88 23.32C26.28 22.2 29 21.48 31.8 21.48L31.56 24.28C31.48 24.76 31.88 25.16 32.36 25.16H33.16C33.72 25.08 34.04 24.76 34.12 24.36Z" fill="#682AE9"/>
</g>
<defs>
<clipPath id="clip0">
<rect width="42.4" height="26" fill="white" transform="translate(11 19)"/>
</clipPath>
</defs>
</svg>
