<svg width="64" height="64" viewBox="0 0 64 64" fill="none" xmlns="http://www.w3.org/2000/svg">
<path opacity="0.2" d="M42.8948 0H21.1052C19.6221 0 18.139 0.57041 17.1123 1.71123L1.71123 17.1123C0.57041 18.139 0 19.6221 0 21.1052V42.8948C0 44.3779 0.57041 45.861 1.71123 46.8877L17.1123 62.2888C18.139 63.3155 19.6221 64 21.1052 64H42.8948C44.3779 64 45.861 63.4296 46.8877 62.2888L62.2888 46.8877C63.3155 45.861 64 44.3779 64 42.8948V21.1052C64 19.6221 63.4296 18.139 62.2888 17.1123L46.8877 1.71123C45.861 0.57041 44.3779 0 42.8948 0Z" fill="#2A91E9"/>
<path d="M31.9998 38.3641C28.5127 38.3641 25.6357 35.4872 25.6357 32C25.6357 28.5128 28.5127 25.6359 31.9998 25.6359C35.487 25.6359 38.3639 28.5128 38.3639 32C38.3639 35.4872 35.487 38.3641 31.9998 38.3641ZM31.9998 28.2513C29.9075 28.2513 28.2511 29.9077 28.2511 32C28.2511 34.0923 29.9075 35.7487 31.9998 35.7487C34.0922 35.7487 35.7486 34.0923 35.7486 32C35.7486 29.9077 34.0922 28.2513 31.9998 28.2513Z" fill="#2A91E9"/>
<path d="M34.5282 49H29.4718C28.5128 49 27.641 48.2154 27.641 47.1692V45.7744C26.8564 45.5128 26.0718 45.1641 25.2872 44.8154L24.3282 45.7744C23.6308 46.4718 22.4974 46.4718 21.8 45.7744L18.2256 42.2C17.5282 41.5026 17.5282 40.3692 18.2256 39.6718L19.1846 38.7128C18.7487 37.9282 18.4872 37.1436 18.2256 36.359H16.8308C15.8718 36.359 15 35.5744 15 34.5282V29.4718C15 28.5128 15.7846 27.641 16.8308 27.641H18.2256C18.4872 26.8564 18.8359 26.0718 19.1846 25.2872L18.2256 24.3282C17.5282 23.6308 17.5282 22.4974 18.2256 21.8L21.8 18.2256C22.4974 17.5282 23.7179 17.5282 24.3282 18.2256L25.2872 19.1846C26.0718 18.7487 26.8564 18.4872 27.641 18.2256V16.8308C27.641 15.8718 28.4256 15 29.4718 15H34.5282C35.4872 15 36.359 15.7846 36.359 16.8308V18.2256C37.1436 18.4872 37.9282 18.8359 38.7128 19.1846L39.6718 18.2256C40.3692 17.5282 41.5897 17.5282 42.2 18.2256L45.7744 21.8C46.4718 22.4974 46.4718 23.6308 45.7744 24.3282L44.8154 25.2872C45.2513 26.0718 45.5128 26.8564 45.7744 27.641H47.1692C48.1282 27.641 49 28.4256 49 29.4718V34.5282C49 35.4872 48.2154 36.359 47.1692 36.359H45.7744C45.5128 37.1436 45.1641 37.9282 44.8154 38.7128L45.7744 39.6718C46.4718 40.3692 46.4718 41.5026 45.7744 42.2L42.2 45.7744C41.5026 46.4718 40.3692 46.4718 39.6718 45.7744L38.7128 44.8154C37.9282 45.2513 37.1436 45.5128 36.359 45.7744V47.1692C36.359 48.2154 35.4872 49 34.5282 49ZM30.2564 46.3846H33.7436V43.7692L34.7897 43.5077C36.0103 43.2462 37.2308 42.7231 38.2769 42.0256L39.1487 41.5026L40.9795 43.3333L43.4205 40.8923L41.5897 39.0615L42.1128 38.1897C42.8103 37.1436 43.2462 35.9231 43.5949 34.7026L43.8564 33.6564H46.4718V30.1692H43.8564L43.5949 29.1231C43.3333 27.9026 42.8103 26.6821 42.1128 25.6359L41.5897 24.7641L43.4205 22.9333L40.9795 20.4923L39.1487 22.3231L38.2769 21.8C37.2308 21.1026 36.0103 20.6667 34.7897 20.3179L33.7436 20.2308V17.6154H30.2564V20.2308L29.2103 20.4923C27.9897 20.7538 26.7692 21.2769 25.7231 21.9744L24.8513 22.4974L23.0205 20.5795L20.5795 23.0205L22.4103 24.8513L21.8872 25.7231C21.1897 26.7692 20.7538 27.9897 20.4051 29.2103L20.2308 30.2564H17.6154V33.7436H20.2308L20.4923 34.7897C20.7538 36.0103 21.2769 37.2308 21.9744 38.2769L22.4974 39.1487L20.6667 40.9795L23.1077 43.4205L24.9385 41.5897L25.8103 42.1128C26.8564 42.8103 28.0769 43.2462 29.2974 43.5949L30.3436 43.8564V46.3846H30.2564Z" fill="#2A91E9"/>
</svg>
