<svg width="12" height="8" viewBox="0 0 12 8" fill="none" xmlns="http://www.w3.org/2000/svg">
<path d="M6.46824 7.33382L11.8083 1.99367C11.9319 1.87016 12 1.70528 12 1.52948C12 1.35368 11.9319 1.1888 11.8083 1.06529L11.4151 0.672023C11.1589 0.416123 10.7425 0.416123 10.4867 0.672023L6.00249 5.15628L1.51326 0.667047C1.38965 0.543536 1.22487 0.475341 1.04916 0.475341C0.873261 0.475341 0.708482 0.543536 0.584775 0.667047L0.191706 1.06031C0.0680971 1.18392 -3.81757e-08 1.3487 -4.58603e-08 1.5245C-5.3545e-08 1.70031 0.0680971 1.86518 0.191706 1.98869L5.53664 7.33382C5.66064 7.45763 5.8262 7.52563 6.00219 7.52524C6.17888 7.52563 6.34434 7.45763 6.46824 7.33382Z" fill="white"/>
</svg>
