<svg width="130" height="24" viewBox="0 0 130 24" fill="none" xmlns="http://www.w3.org/2000/svg">
<path d="M0 14.4193H9.73806V23.9853H0V14.4193Z" fill="#22AC39"/>
<path d="M0 0.0148926H9.73806V9.58094L4.87531 4.80409L0 0.0148926Z" fill="#E72511"/>
<path d="M13.3574 0.0146484V23.9853C16.5933 23.9853 19.6966 22.7226 21.9847 20.4749C24.2728 18.2272 25.5583 15.1787 25.5583 12C25.5583 8.82128 24.2728 5.77276 21.9847 3.52507C19.6966 1.27739 16.5933 0.0146484 13.3574 0.0146484Z" fill="#005CAC"/>
<path d="M60.8657 9.81522C60.4407 9.81522 60.0253 9.69143 59.672 9.45951C59.3186 9.22758 59.0432 8.89793 58.8806 8.51225C58.718 8.12657 58.6754 7.70218 58.7583 7.29274C58.8412 6.88331 59.0459 6.50722 59.3464 6.21203C59.6469 5.91684 60.0297 5.71582 60.4465 5.63437C60.8633 5.55293 61.2953 5.59473 61.6879 5.75449C62.0806 5.91424 62.4161 6.18477 62.6522 6.53188C62.8883 6.87898 63.0143 7.28706 63.0143 7.70452C63.0111 8.26331 62.7836 8.7983 62.3814 9.19343C61.9791 9.58857 61.4345 9.81198 60.8657 9.81522ZM58.9809 11.8148H62.7253V21.0723H58.9809V11.8148ZM95.018 21.0723V9.17337H98.7876V11.8025C98.9927 11.3049 99.2768 10.8425 99.6295 10.4324C100.622 9.28446 101.577 9.00057 103.701 9.00057H103.914V11.6791H103.776C103.291 11.6391 102.802 11.6938 102.339 11.84C101.875 11.9861 101.445 12.2209 101.074 12.5307C100.315 13.1737 99.7147 13.9779 99.3185 14.8825C98.9223 15.787 98.7407 16.7683 98.7876 17.752V21.0723H95.018ZM108.149 21.0723V11.6914H105.874V9.00057H108.149V5.35929H111.906V9.00057H114.155V11.6914H111.906V21.0723H108.149ZM121.983 21.4303C120.28 21.4303 118.647 20.7657 117.443 19.5829C116.239 18.4 115.562 16.7957 115.562 15.1228C115.562 13.45 116.239 11.8457 117.443 10.6628C118.647 9.47995 120.28 8.81542 121.983 8.81542C123.342 8.82069 124.663 9.25326 125.753 10.0497L126.431 10.5435V9.17337H129.949V21.0723H126.431V19.7639L125.753 20.2453C124.656 21.0234 123.336 21.4384 121.983 21.4303ZM122.335 11.6914C121.644 11.6914 120.969 11.8927 120.394 12.2697C119.82 12.6468 119.372 13.1827 119.108 13.8097C118.843 14.4367 118.774 15.1266 118.909 15.7923C119.044 16.4579 119.376 17.0693 119.865 17.5492C120.353 18.0291 120.976 18.3559 121.653 18.4883C122.331 18.6207 123.033 18.5528 123.672 18.2931C124.31 18.0334 124.855 17.5935 125.239 17.0292C125.623 16.4649 125.828 15.8015 125.828 15.1228C125.828 14.2128 125.46 13.34 124.805 12.6964C124.15 12.0529 123.261 11.6914 122.335 11.6914ZM64.6353 9.00057H68.43L71.6969 14.7649L74.9765 9.00057H78.7586L71.6969 21.0106L64.6353 9.00057ZM85.6192 21.492C83.8772 21.5118 82.1983 20.8526 80.9501 19.6588C79.7018 18.465 78.9861 16.834 78.9596 15.1228C78.9596 13.3878 79.6613 11.7238 80.9102 10.497C82.1591 9.27013 83.853 8.58089 85.6192 8.58089C87.3854 8.58089 89.0793 9.27013 90.3283 10.497C91.5772 11.7238 92.2788 13.3878 92.2788 15.1228V15.5672H82.9303V15.9375C82.9245 16.0444 82.9245 16.1515 82.9303 16.2584C82.9335 16.6086 83.007 16.9546 83.1464 17.2769C83.2859 17.5991 83.4886 17.8912 83.7429 18.1365C83.9973 18.3818 84.2984 18.5754 84.6289 18.7064C84.9595 18.8374 85.3131 18.9031 85.6695 18.8999C86.0965 18.898 86.5173 18.7989 86.8988 18.6104C87.2803 18.422 87.6122 18.1493 87.8684 17.8137H91.638C91.0855 18.9185 90.2286 19.8489 89.1646 20.4992C88.1006 21.1494 86.8723 21.4934 85.6192 21.492ZM85.7197 11.1236C85.0621 11.1177 84.4249 11.3477 83.9276 11.7703C83.4302 12.193 83.1069 12.7793 83.0182 13.4195V13.8885H88.5595L88.4967 13.4195C88.4013 12.7687 88.0656 12.1751 87.5536 11.7517C87.0415 11.3283 86.3888 11.1048 85.7197 11.1236ZM37.2305 21.0723V3.19922H47.2827C48.4773 3.19922 49.6603 3.43037 50.764 3.87947C51.8678 4.32858 52.8706 4.98684 53.7154 5.81667C54.5601 6.64651 55.2302 7.63166 55.6874 8.7159C56.1446 9.80013 56.3799 10.9622 56.3799 12.1358C56.3799 13.3093 56.1446 14.4714 55.6874 15.5556C55.2302 16.6399 54.5601 17.625 53.7154 18.4549C52.8706 19.2847 51.8678 19.9429 50.764 20.3921C49.6603 20.8412 48.4773 21.0723 47.2827 21.0723H37.2305ZM41.465 17.8507H46.1141C47.657 17.8507 49.1368 17.2486 50.2278 16.1768C51.3189 15.1051 51.9318 13.6515 51.9318 12.1358C51.9318 10.6201 51.3189 9.16645 50.2278 8.09469C49.1368 7.02293 47.657 6.42082 46.1141 6.42082H41.465V17.8507Z" fill="white"/>
</svg>
