<svg width="64" height="64" viewBox="0 0 64 64" fill="none" xmlns="http://www.w3.org/2000/svg">
<path opacity="0.2" d="M42.8948 0H21.1052C19.6221 0 18.139 0.57041 17.1123 1.71123L1.71123 17.1123C0.57041 18.139 0 19.6221 0 21.1052V42.8948C0 44.3779 0.57041 45.861 1.71123 46.8877L17.1123 62.2888C18.139 63.3155 19.6221 64 21.1052 64H42.8948C44.3779 64 45.861 63.4296 46.8877 62.2888L62.2888 46.8877C63.3155 45.861 64 44.3779 64 42.8948V21.1052C64 19.6221 63.4296 18.139 62.2888 17.1123L46.8877 1.71123C45.861 0.57041 44.3779 0 42.8948 0Z" fill="#682AE9"/>
<g clip-path="url(#clip0)">
<path d="M47.3655 40.6154L43.0777 36.3275L44.7452 34.6601C45.2216 34.1836 45.4598 33.3896 45.301 32.6749C45.1422 31.9603 44.5863 31.4045 43.9511 31.1663L28.8643 26.1638C28.1496 25.9256 27.2762 26.0844 26.7203 26.6402C26.1645 27.196 26.0057 27.9901 26.2439 28.7841L31.2464 43.871C31.4846 44.5856 32.0404 45.062 32.7551 45.2208C33.4697 45.3797 34.1844 45.1414 34.7402 44.665L36.4077 42.9975L40.6955 47.2854C41.0926 47.6824 41.6484 47.9206 42.2042 47.9206C42.76 47.9206 43.3159 47.6824 43.7129 47.2854L47.5243 43.4739C47.9213 43.0769 48.1595 42.5211 48.1595 41.9653C48.0007 41.5682 47.7625 41.0124 47.3655 40.6154ZM42.1248 45.4591L36.3283 39.6625L33.3109 42.6799L28.626 28.6253L42.6806 33.3102L39.6633 36.3275L45.4598 42.1241L42.1248 45.4591Z" fill="#682AE9"/>
<path d="M27.9892 23.9404C28.7039 23.9404 29.2597 23.3846 29.2597 22.67V17.2705C29.2597 16.5558 28.7039 16 27.9892 16C27.2746 16 26.7188 16.5558 26.7188 17.2705V22.5906C26.7188 23.3052 27.2746 23.9404 27.9892 23.9404Z" fill="#682AE9"/>
<path d="M21.3203 19.4938C20.8439 19.0174 19.9705 19.0174 19.494 19.4938C19.0176 19.9702 19.0176 20.8437 19.494 21.3201L23.3055 25.1315C23.5437 25.3697 23.8613 25.5285 24.1789 25.5285C24.4965 25.5285 24.8141 25.3697 25.0524 25.1315C25.2906 24.8933 25.4494 24.5757 25.4494 24.2581C25.4494 23.9404 25.2906 23.6228 25.0524 23.3846L21.3203 19.4938Z" fill="#682AE9"/>
<path d="M23.3055 30.8486L19.494 34.6601C19.0176 35.1365 19.0176 36.0099 19.494 36.4864C19.7323 36.7246 20.0499 36.8834 20.3675 36.8834C20.6851 36.8834 21.0027 36.7246 21.2409 36.4864L25.0524 32.6749C25.2906 32.4367 25.4494 32.1191 25.4494 31.8015C25.4494 31.4839 25.2906 31.1663 25.0524 30.928C24.6553 30.3722 23.7819 30.3722 23.3055 30.8486Z" fill="#682AE9"/>
<path d="M31.7223 25.4491C32.0399 25.4491 32.3575 25.2903 32.5957 25.0521L36.4071 21.2407C36.8836 20.7643 36.8836 19.8908 36.4071 19.4144C35.9307 18.938 35.0573 18.938 34.5808 19.4144L30.7694 23.2258C30.293 23.7022 30.293 24.5757 30.7694 25.0521C31.087 25.3697 31.4047 25.4491 31.7223 25.4491Z" fill="#682AE9"/>
<path d="M23.9404 27.9901C23.9404 27.2754 23.3846 26.7196 22.67 26.7196H17.2705C16.5558 26.7196 16 27.2754 16 27.9901C16 28.7047 16.5558 29.2605 17.2705 29.2605H22.5906C23.3052 29.2605 23.9404 28.7047 23.9404 27.9901Z" fill="#682AE9"/>
</g>
<defs>
<clipPath id="clip0">
<rect width="32" height="32" fill="white" transform="translate(16 16)"/>
</clipPath>
</defs>
</svg>
