<svg width="86" height="86" viewBox="0 0 86 86" fill="none" xmlns="http://www.w3.org/2000/svg">
<g opacity="0.3">
<path d="M6 4C6 4.2 5.9 4.3 5.8 4.4L4.4 5.8C4.3 5.9 4.1 6 4 6H2C1.9 6 1.7 5.9 1.6 5.8L0.2 4.4C0.1 4.3 0 4.1 0 4V2C0 1.8 0.1 1.7 0.2 1.6L1.6 0.2C1.7 0.1 1.9 0 2 0H4C4.2 0 4.3 0.1 4.4 0.2L5.8 1.6C5.9 1.7 6 1.9 6 2V4Z" fill="#682AE9"/>
<path d="M22 4C22 4.2 21.9 4.3 21.8 4.4L20.4 5.8C20.3 5.9 20.1 6 20 6H18C17.8 6 17.7 5.9 17.6 5.8L16.2 4.4C16.1 4.3 16 4.1 16 4V2C16 1.8 16.1 1.7 16.2 1.6L17.6 0.2C17.7 0.1 17.9 0 18 0H20C20.2 0 20.3 0.1 20.4 0.2L21.8 1.6C21.9 1.7 22 1.9 22 2V4Z" fill="#682AE9"/>
<path d="M38 4C38 4.2 37.9 4.3 37.8 4.4L36.4 5.8C36.3 5.9 36.1 6 36 6H34C33.8 6 33.7 5.9 33.6 5.8L32.2 4.4C32.1 4.3 32 4.1 32 4V2C32 1.8 32.1 1.7 32.2 1.6L33.6 0.2C33.7 0.1 33.9 0 34 0H36C36.2 0 36.3 0.1 36.4 0.2L37.8 1.6C37.9 1.7 38 1.9 38 2V4Z" fill="#682AE9"/>
<path d="M54 4C54 4.2 53.9 4.3 53.8 4.4L52.4 5.8C52.3 5.9 52.1 6 52 6H50C49.8 6 49.7 5.9 49.6 5.8L48.2 4.4C48.1 4.3 48 4.1 48 4V2C48 1.8 48.1 1.7 48.2 1.6L49.6 0.2C49.7 0.1 49.9 0 50 0H52C52.2 0 52.3 0.1 52.4 0.2L53.8 1.6C53.9 1.7 54 1.9 54 2V4Z" fill="#682AE9"/>
<path d="M70 4C70 4.2 69.9 4.3 69.8 4.4L68.4 5.8C68.3 5.9 68.1 6 68 6H66C65.8 6 65.7 5.9 65.6 5.8L64.2 4.4C64.1 4.3 64 4.1 64 4V2C64 1.8 64.1 1.7 64.2 1.6L65.6 0.2C65.7 0.1 65.9 0 66 0H68C68.2 0 68.3 0.1 68.4 0.2L69.8 1.6C69.9 1.7 70 1.9 70 2V4Z" fill="#682AE9"/>
<path d="M86 4C86 4.2 85.9 4.3 85.8 4.4L84.4 5.8C84.3 5.9 84.1 6 84 6H82C81.8 6 81.7 5.9 81.6 5.8L80.2 4.4C80.1 4.3 80 4.1 80 4V2C80 1.8 80.1 1.7 80.2 1.6L81.6 0.2C81.7 0.1 81.9 0 82 0H84C84.2 0 84.3 0.1 84.4 0.2L85.8 1.6C85.9 1.7 86 1.9 86 2V4Z" fill="#682AE9"/>
<path d="M6 20C6 20.2 5.9 20.3 5.8 20.4L4.4 21.8C4.3 21.9 4.1 22 4 22H2C1.8 22 1.7 21.9 1.6 21.8L0.2 20.4C0.1 20.3 0 20.1 0 20V18C0 17.8 0.1 17.7 0.2 17.6L1.6 16.2C1.7 16.1 1.9 16 2 16H4C4.2 16 4.3 16.1 4.4 16.2L5.8 17.6C5.9 17.7 6 17.9 6 18V20Z" fill="#682AE9"/>
<path d="M22 20C22 20.2 21.9 20.3 21.8 20.4L20.4 21.8C20.3 21.9 20.1 22 20 22H18C17.8 22 17.7 21.9 17.6 21.8L16.2 20.4C16.1 20.3 16 20.1 16 20V18C16 17.8 16.1 17.7 16.2 17.6L17.6 16.2C17.7 16.1 17.9 16 18 16H20C20.2 16 20.3 16.1 20.4 16.2L21.8 17.6C21.9 17.7 22 17.9 22 18V20Z" fill="#682AE9"/>
<path d="M38 20C38 20.2 37.9 20.3 37.8 20.4L36.4 21.8C36.3 21.9 36.1 22 36 22H34C33.8 22 33.7 21.9 33.6 21.8L32.2 20.4C32.1 20.3 32 20.1 32 20V18C32 17.8 32.1 17.7 32.2 17.6L33.6 16.2C33.7 16.1 33.9 16 34 16H36C36.2 16 36.3 16.1 36.4 16.2L37.8 17.6C37.9 17.7 38 17.9 38 18V20Z" fill="#682AE9"/>
<path d="M54 20C54 20.2 53.9 20.3 53.8 20.4L52.4 21.8C52.3 21.9 52.1 22 52 22H50C49.8 22 49.7 21.9 49.6 21.8L48.2 20.4C48.1 20.3 48 20.1 48 20V18C48 17.8 48.1 17.7 48.2 17.6L49.6 16.2C49.7 16.1 49.9 16 50 16H52C52.2 16 52.3 16.1 52.4 16.2L53.8 17.6C53.9 17.7 54 17.9 54 18V20Z" fill="#682AE9"/>
<path d="M70 20C70 20.2 69.9 20.3 69.8 20.4L68.4 21.8C68.3 21.9 68.1 22 68 22H66C65.8 22 65.7 21.9 65.6 21.8L64.2 20.4C64.1 20.3 64 20.1 64 20V18C64 17.8 64.1 17.7 64.2 17.6L65.6 16.2C65.7 16.1 65.9 16 66 16H68C68.2 16 68.3 16.1 68.4 16.2L69.8 17.6C69.9 17.7 70 17.9 70 18V20Z" fill="#682AE9"/>
<path d="M86 20C86 20.2 85.9 20.3 85.8 20.4L84.4 21.8C84.3 21.9 84.1 22 84 22H82C81.8 22 81.7 21.9 81.6 21.8L80.2 20.4C80.1 20.3 80 20.1 80 20V18C80 17.8 80.1 17.7 80.2 17.6L81.6 16.2C81.7 16.1 81.9 16 82 16H84C84.2 16 84.3 16.1 84.4 16.2L85.8 17.6C85.9 17.7 86 17.9 86 18V20Z" fill="#682AE9"/>
<path d="M6 36C6 36.2 5.9 36.3 5.8 36.4L4.4 37.8C4.3 37.9 4.1 38 4 38H2C1.8 38 1.7 37.9 1.6 37.8L0.2 36.4C0.1 36.3 0 36.1 0 36V34C0 33.8 0.1 33.7 0.2 33.6L1.6 32.2C1.7 32.1 1.9 32 2 32H4C4.2 32 4.3 32.1 4.4 32.2L5.8 33.6C5.9 33.7 6 33.9 6 34V36Z" fill="#682AE9"/>
<path d="M22 36C22 36.2 21.9 36.3 21.8 36.4L20.4 37.8C20.3 37.9 20.1 38 20 38H18C17.8 38 17.7 37.9 17.6 37.8L16.2 36.4C16.1 36.3 16 36.1 16 36V34C16 33.8 16.1 33.7 16.2 33.6L17.6 32.2C17.7 32.1 17.9 32 18 32H20C20.2 32 20.3 32.1 20.4 32.2L21.8 33.6C21.9 33.7 22 33.9 22 34V36Z" fill="#682AE9"/>
<path d="M38 36C38 36.2 37.9 36.3 37.8 36.4L36.4 37.8C36.3 37.9 36.1 38 36 38H34C33.8 38 33.7 37.9 33.6 37.8L32.2 36.4C32.1 36.3 32 36.1 32 36V34C32 33.8 32.1 33.7 32.2 33.6L33.6 32.2C33.7 32.1 33.9 32 34 32H36C36.2 32 36.3 32.1 36.4 32.2L37.8 33.6C37.9 33.7 38 33.9 38 34V36Z" fill="#682AE9"/>
<path d="M54 36C54 36.2 53.9 36.3 53.8 36.4L52.4 37.8C52.3 37.9 52.1 38 52 38H50C49.8 38 49.7 37.9 49.6 37.8L48.2 36.4C48.1 36.3 48 36.1 48 36V34C48 33.8 48.1 33.7 48.2 33.6L49.6 32.2C49.7 32.1 49.9 32 50 32H52C52.2 32 52.3 32.1 52.4 32.2L53.8 33.6C53.9 33.7 54 33.9 54 34V36Z" fill="#682AE9"/>
<path d="M70 36C70 36.2 69.9 36.3 69.8 36.4L68.4 37.8C68.3 37.9 68.1 38 68 38H66C65.8 38 65.7 37.9 65.6 37.8L64.2 36.4C64.1 36.3 64 36.1 64 36V34C64 33.8 64.1 33.7 64.2 33.6L65.6 32.2C65.7 32.1 65.9 32 66 32H68C68.2 32 68.3 32.1 68.4 32.2L69.8 33.6C69.9 33.7 70 33.9 70 34V36Z" fill="#682AE9"/>
<path d="M86 36C86 36.2 85.9 36.3 85.8 36.4L84.4 37.8C84.3 37.9 84.1 38 84 38H82C81.8 38 81.7 37.9 81.6 37.8L80.2 36.4C80.1 36.3 80 36.1 80 36V34C80 33.8 80.1 33.7 80.2 33.6L81.6 32.2C81.7 32.1 81.9 32 82 32H84C84.2 32 84.3 32.1 84.4 32.2L85.8 33.6C85.9 33.7 86 33.9 86 34V36Z" fill="#682AE9"/>
<path d="M6 52C6 52.2 5.9 52.3 5.8 52.4L4.4 53.8C4.3 53.9 4.1 54 4 54H2C1.8 54 1.7 53.9 1.6 53.8L0.2 52.4C0.1 52.3 0 52.1 0 52V50C0 49.8 0.1 49.7 0.2 49.6L1.6 48.2C1.7 48.1 1.9 48 2 48H4C4.2 48 4.3 48.1 4.4 48.2L5.8 49.6C5.9 49.7 6 49.9 6 50V52Z" fill="#682AE9"/>
<path d="M22 52C22 52.2 21.9 52.3 21.8 52.4L20.4 53.8C20.3 53.9 20.1 54 20 54H18C17.8 54 17.7 53.9 17.6 53.8L16.2 52.4C16.1 52.3 16 52.1 16 52V50C16 49.8 16.1 49.7 16.2 49.6L17.6 48.2C17.7 48.1 17.9 48 18 48H20C20.2 48 20.3 48.1 20.4 48.2L21.8 49.6C21.9 49.7 22 49.9 22 50V52Z" fill="#682AE9"/>
<path d="M38 52C38 52.2 37.9 52.3 37.8 52.4L36.4 53.8C36.3 53.9 36.1 54 36 54H34C33.8 54 33.7 53.9 33.6 53.8L32.2 52.4C32.1 52.3 32 52.1 32 52V50C32 49.8 32.1 49.7 32.2 49.6L33.6 48.2C33.7 48.1 33.9 48 34 48H36C36.2 48 36.3 48.1 36.4 48.2L37.8 49.6C37.9 49.7 38 49.9 38 50V52Z" fill="#682AE9"/>
<path d="M54 52C54 52.2 53.9 52.3 53.8 52.4L52.4 53.8C52.3 53.9 52.1 54 52 54H50C49.8 54 49.7 53.9 49.6 53.8L48.2 52.4C48.1 52.3 48 52.1 48 52V50C48 49.8 48.1 49.7 48.2 49.6L49.6 48.2C49.7 48.1 49.9 48 50 48H52C52.2 48 52.3 48.1 52.4 48.2L53.8 49.6C53.9 49.7 54 49.9 54 50V52Z" fill="#682AE9"/>
<path d="M70 52C70 52.2 69.9 52.3 69.8 52.4L68.4 53.8C68.3 53.9 68.1 54 68 54H66C65.8 54 65.7 53.9 65.6 53.8L64.2 52.4C64.1 52.3 64 52.1 64 52V50C64 49.8 64.1 49.7 64.2 49.6L65.6 48.2C65.7 48.1 65.9 48 66 48H68C68.2 48 68.3 48.1 68.4 48.2L69.8 49.6C69.9 49.7 70 49.9 70 50V52Z" fill="#682AE9"/>
<path d="M86 52C86 52.2 85.9 52.3 85.8 52.4L84.4 53.8C84.3 53.9 84.1 54 84 54H82C81.8 54 81.7 53.9 81.6 53.8L80.2 52.4C80.1 52.3 80 52.1 80 52V50C80 49.8 80.1 49.7 80.2 49.6L81.6 48.2C81.7 48.1 81.9 48 82 48H84C84.2 48 84.3 48.1 84.4 48.2L85.8 49.6C85.9 49.7 86 49.9 86 50V52Z" fill="#682AE9"/>
<path d="M6 68C6 68.2 5.9 68.3 5.8 68.4L4.4 69.8C4.3 69.9 4.1 70 4 70H2C1.8 70 1.7 69.9 1.6 69.8L0.2 68.4C0.1 68.3 0 68.1 0 68V66C0 65.8 0.1 65.7 0.2 65.6L1.6 64.2C1.7 64.1 1.9 64 2 64H4C4.2 64 4.3 64.1 4.4 64.2L5.8 65.6C5.9 65.7 6 65.9 6 66V68Z" fill="#682AE9"/>
<path d="M22 68C22 68.2 21.9 68.3 21.8 68.4L20.4 69.8C20.3 69.9 20.1 70 20 70H18C17.8 70 17.7 69.9 17.6 69.8L16.2 68.4C16.1 68.3 16 68.1 16 68V66C16 65.8 16.1 65.7 16.2 65.6L17.6 64.2C17.7 64.1 17.9 64 18 64H20C20.2 64 20.3 64.1 20.4 64.2L21.8 65.6C21.9 65.7 22 65.9 22 66V68Z" fill="#682AE9"/>
<path d="M38 68C38 68.2 37.9 68.3 37.8 68.4L36.4 69.8C36.3 69.9 36.1 70 36 70H34C33.8 70 33.7 69.9 33.6 69.8L32.2 68.4C32.1 68.3 32 68.1 32 68V66C32 65.8 32.1 65.7 32.2 65.6L33.6 64.2C33.7 64.1 33.9 64 34 64H36C36.2 64 36.3 64.1 36.4 64.2L37.8 65.6C37.9 65.7 38 65.9 38 66V68Z" fill="#682AE9"/>
<path d="M54 68C54 68.2 53.9 68.3 53.8 68.4L52.4 69.8C52.3 69.9 52.1 70 52 70H50C49.8 70 49.7 69.9 49.6 69.8L48.2 68.4C48.1 68.3 48 68.1 48 68V66C48 65.8 48.1 65.7 48.2 65.6L49.6 64.2C49.7 64.1 49.9 64 50 64H52C52.2 64 52.3 64.1 52.4 64.2L53.8 65.6C53.9 65.7 54 65.9 54 66V68Z" fill="#682AE9"/>
<path d="M70 68C70 68.2 69.9 68.3 69.8 68.4L68.4 69.8C68.3 69.9 68.1 70 68 70H66C65.8 70 65.7 69.9 65.6 69.8L64.2 68.4C64.1 68.3 64 68.1 64 68V66C64 65.8 64.1 65.7 64.2 65.6L65.6 64.2C65.7 64.1 65.9 64 66 64H68C68.2 64 68.3 64.1 68.4 64.2L69.8 65.6C69.9 65.7 70 65.9 70 66V68Z" fill="#682AE9"/>
<path d="M86 68C86 68.2 85.9 68.3 85.8 68.4L84.4 69.8C84.3 69.9 84.1 70 84 70H82C81.8 70 81.7 69.9 81.6 69.8L80.2 68.4C80.1 68.3 80 68.1 80 68V66C80 65.8 80.1 65.7 80.2 65.6L81.6 64.2C81.7 64.1 81.9 64 82 64H84C84.2 64 84.3 64.1 84.4 64.2L85.8 65.6C85.9 65.7 86 65.9 86 66V68Z" fill="#682AE9"/>
<path d="M6 84C6 84.2 5.9 84.3 5.8 84.4L4.4 85.8C4.3 85.9 4.1 86 4 86H2C1.8 86 1.7 85.9 1.6 85.8L0.2 84.4C0.1 84.3 0 84.1 0 84V82C0 81.8 0.1 81.7 0.2 81.6L1.6 80.2C1.7 80.1 1.9 80 2 80H4C4.2 80 4.3 80.1 4.4 80.2L5.8 81.6C5.9 81.7 6 81.9 6 82V84Z" fill="#682AE9"/>
<path d="M22 84C22 84.2 21.9 84.3 21.8 84.4L20.4 85.8C20.3 85.9 20.1 86 20 86H18C17.8 86 17.7 85.9 17.6 85.8L16.2 84.4C16.1 84.3 16 84.1 16 84V82C16 81.8 16.1 81.7 16.2 81.6L17.6 80.2C17.7 80.1 17.9 80 18 80H20C20.2 80 20.3 80.1 20.4 80.2L21.8 81.6C21.9 81.7 22 81.9 22 82V84Z" fill="#682AE9"/>
<path d="M38 84C38 84.2 37.9 84.3 37.8 84.4L36.4 85.8C36.3 85.9 36.1 86 36 86H34C33.8 86 33.7 85.9 33.6 85.8L32.2 84.4C32.1 84.3 32 84.1 32 84V82C32 81.8 32.1 81.7 32.2 81.6L33.6 80.2C33.7 80.1 33.9 80 34 80H36C36.2 80 36.3 80.1 36.4 80.2L37.8 81.6C37.9 81.7 38 81.9 38 82V84Z" fill="#682AE9"/>
<path d="M54 84C54 84.2 53.9 84.3 53.8 84.4L52.4 85.8C52.3 85.9 52.1 86 52 86H50C49.8 86 49.7 85.9 49.6 85.8L48.2 84.4C48.1 84.3 48 84.1 48 84V82C48 81.8 48.1 81.7 48.2 81.6L49.6 80.2C49.7 80.1 49.9 80 50 80H52C52.2 80 52.3 80.1 52.4 80.2L53.8 81.6C53.9 81.7 54 81.9 54 82V84Z" fill="#682AE9"/>
<path d="M70 84C70 84.2 69.9 84.3 69.8 84.4L68.4 85.8C68.3 85.9 68.1 86 68 86H66C65.8 86 65.7 85.9 65.6 85.8L64.2 84.4C64.1 84.3 64 84.1 64 84V82C64 81.8 64.1 81.7 64.2 81.6L65.6 80.2C65.7 80.1 65.9 80 66 80H68C68.2 80 68.3 80.1 68.4 80.2L69.8 81.6C69.9 81.7 70 81.9 70 82V84Z" fill="#682AE9"/>
<path d="M86 84C86 84.2 85.9 84.3 85.8 84.4L84.4 85.8C84.3 85.9 84.1 86 84 86H82C81.8 86 81.7 85.9 81.6 85.8L80.2 84.4C80.1 84.3 80 84.1 80 84V82C80 81.8 80.1 81.7 80.2 81.6L81.6 80.2C81.7 80.1 81.9 80 82 80H84C84.2 80 84.3 80.1 84.4 80.2L85.8 81.6C85.9 81.7 86 81.9 86 82V84Z" fill="#682AE9"/>
</g>
</svg>
