<svg width="16" height="16" viewBox="0 0 16 16" fill="none" xmlns="http://www.w3.org/2000/svg">
<path d="M16 10.64C16 11.04 15.84 11.52 15.52 11.84L11.84 15.52C11.52 15.84 11.12 16 10.64 16H5.36C4.96 16 4.48 15.84 4.16 15.52L0.48 11.84C0.16 11.52 0 11.04 0 10.64V5.36C0 4.96 0.16 4.48 0.48 4.16L4.16 0.48C4.48 0.16 4.96 0 5.36 0H10.64C11.04 0 11.52 0.16 11.84 0.48L15.52 4.16C15.84 4.48 16 4.96 16 5.36V10.64Z" fill="#EF660D"/>
<path d="M11.0404 5.44005C10.6404 5.04005 10.1604 4.80005 9.60039 4.80005C9.20039 4.80005 8.80039 4.96005 8.48039 5.20005C8.32039 5.36005 8.16039 5.52005 8.00039 5.68005C7.84039 5.44005 7.68039 5.28005 7.52039 5.20005C7.20039 4.88005 6.80039 4.80005 6.40039 4.80005C5.84039 4.80005 5.36039 5.04005 4.96039 5.44005C4.56039 5.84005 4.40039 6.40005 4.40039 6.96005C4.40039 7.60005 4.64039 8.16005 5.12039 8.72005C5.52039 9.28005 6.16039 9.76005 6.88039 10.4C7.12039 10.64 7.44039 10.88 7.68039 11.12C7.76039 11.2 7.92039 11.2 8.00039 11.2C8.08039 11.2 8.24039 11.2 8.24039 11.12C8.56039 10.88 8.80039 10.64 9.04039 10.4C9.76039 9.76005 10.4004 9.28005 10.8004 8.72005C11.2804 8.16005 11.5204 7.60005 11.5204 6.96005C11.6004 6.40005 11.4404 5.84005 11.0404 5.44005Z" fill="#0F1015"/>
</svg>
