<svg width="12" height="12" viewBox="0 0 12 12" fill="none" xmlns="http://www.w3.org/2000/svg">
<mask id="path-1-inside-1" fill="white">
<path d="M8.57141 2.14282H1.28571C0.575633 2.14282 0 2.71846 0 3.42854V10.7142C0 11.4243 0.575633 11.9999 1.28571 11.9999H8.57141C9.2815 11.9999 9.85713 11.4243 9.85713 10.7142V3.42854C9.85713 2.71846 9.2815 2.14282 8.57141 2.14282ZM8.99999 10.7143C8.99999 10.951 8.80812 11.1428 8.57141 11.1428H1.28571C1.04901 11.1428 0.857134 10.951 0.857134 10.7143V3.42854C0.857134 3.19183 1.04901 2.99996 1.28571 2.99996H8.57141C8.80812 2.99996 8.99999 3.19183 8.99999 3.42854V10.7143Z"/>
</mask>
<path d="M8.57141 2.14282H1.28571C0.575633 2.14282 0 2.71846 0 3.42854V10.7142C0 11.4243 0.575633 11.9999 1.28571 11.9999H8.57141C9.2815 11.9999 9.85713 11.4243 9.85713 10.7142V3.42854C9.85713 2.71846 9.2815 2.14282 8.57141 2.14282ZM8.99999 10.7143C8.99999 10.951 8.80812 11.1428 8.57141 11.1428H1.28571C1.04901 11.1428 0.857134 10.951 0.857134 10.7143V3.42854C0.857134 3.19183 1.04901 2.99996 1.28571 2.99996H8.57141C8.80812 2.99996 8.99999 3.19183 8.99999 3.42854V10.7143Z" fill="#EF660D"/>
<path d="M9.85713 3.42854H8.85713H9.85713ZM8.57141 1.14282H1.28571V3.14282H8.57141V1.14282ZM1.28571 1.14282C0.0233481 1.14282 -1 2.16617 -1 3.42854H1C1 3.27074 1.12792 3.14282 1.28571 3.14282V1.14282ZM-1 3.42854V10.7142H1V3.42854H-1ZM-1 10.7142C-1 11.9766 0.0233479 12.9999 1.28571 12.9999V10.9999C1.12792 10.9999 1 10.872 1 10.7142H-1ZM1.28571 12.9999H8.57141V10.9999H1.28571V12.9999ZM8.57141 12.9999C9.83378 12.9999 10.8571 11.9766 10.8571 10.7142H8.85713C8.85713 10.872 8.72921 10.9999 8.57141 10.9999V12.9999ZM10.8571 10.7142V3.42854H8.85713V10.7142H10.8571ZM10.8571 3.42854C10.8571 2.16617 9.83378 1.14282 8.57141 1.14282V3.14282C8.72921 3.14282 8.85713 3.27074 8.85713 3.42854H10.8571ZM7.99999 10.7143C7.99999 10.3987 8.25583 10.1428 8.57141 10.1428V12.1428C9.3604 12.1428 9.99999 11.5032 9.99999 10.7143H7.99999ZM8.57141 10.1428H1.28571V12.1428H8.57141V10.1428ZM1.28571 10.1428C1.6013 10.1428 1.85713 10.3987 1.85713 10.7143H-0.142866C-0.142866 11.5032 0.496726 12.1428 1.28571 12.1428V10.1428ZM1.85713 10.7143V3.42854H-0.142866V10.7143H1.85713ZM1.85713 3.42854C1.85713 3.74412 1.6013 3.99996 1.28571 3.99996V1.99996C0.496727 1.99996 -0.142866 2.63955 -0.142866 3.42854H1.85713ZM1.28571 3.99996H8.57141V1.99996H1.28571V3.99996ZM8.57141 3.99996C8.25583 3.99996 7.99999 3.74412 7.99999 3.42854H9.99999C9.99999 2.63955 9.3604 1.99996 8.57141 1.99996V3.99996ZM7.99999 3.42854V10.7143H9.99999V3.42854H7.99999Z" fill="#EF660D" mask="url(#path-1-inside-1)"/>
<mask id="path-3-inside-2" fill="white">
<path d="M10.7148 0H3.00056C2.29048 0 1.71484 0.575633 1.71484 1.28571C1.71484 1.52242 1.90672 1.71429 2.14342 1.71429C2.38013 1.71429 2.57198 1.52242 2.57198 1.28571C2.57198 1.04901 2.76386 0.857134 3.00056 0.857134H10.7148C10.9515 0.857134 11.1434 1.04901 11.1434 1.28571V8.99999C11.1434 9.2367 10.9515 9.42857 10.7148 9.42857C10.4781 9.42857 10.2863 9.62045 10.2863 9.85715C10.2863 10.0939 10.4781 10.2857 10.7148 10.2857C11.4249 10.2857 12.0006 9.7101 12.0006 9.00002V1.28571C12.0006 0.575633 11.4249 0 10.7148 0Z"/>
</mask>
<path d="M10.7148 0H3.00056C2.29048 0 1.71484 0.575633 1.71484 1.28571C1.71484 1.52242 1.90672 1.71429 2.14342 1.71429C2.38013 1.71429 2.57198 1.52242 2.57198 1.28571C2.57198 1.04901 2.76386 0.857134 3.00056 0.857134H10.7148C10.9515 0.857134 11.1434 1.04901 11.1434 1.28571V8.99999C11.1434 9.2367 10.9515 9.42857 10.7148 9.42857C10.4781 9.42857 10.2863 9.62045 10.2863 9.85715C10.2863 10.0939 10.4781 10.2857 10.7148 10.2857C11.4249 10.2857 12.0006 9.7101 12.0006 9.00002V1.28571C12.0006 0.575633 11.4249 0 10.7148 0Z" fill="#EF660D"/>
<path d="M10.7148 -1H3.00056V1H10.7148V-1ZM3.00056 -1C1.73819 -1 0.714844 0.023348 0.714844 1.28571H2.71484C2.71484 1.12792 2.84276 1 3.00056 1V-1ZM0.714844 1.28571C0.714844 2.0747 1.35444 2.71429 2.14342 2.71429V0.714293C2.45901 0.714293 2.71484 0.97013 2.71484 1.28571H0.714844ZM2.14342 2.71429C2.93249 2.71429 3.57198 2.07462 3.57198 1.28571H1.57198C1.57198 0.970206 1.82776 0.714293 2.14342 0.714293V2.71429ZM3.57198 1.28571C3.57198 1.6013 3.31614 1.85713 3.00056 1.85713V-0.142866C2.21157 -0.142866 1.57198 0.496727 1.57198 1.28571H3.57198ZM3.00056 1.85713H10.7148V-0.142866H3.00056V1.85713ZM10.7148 1.85713C10.3993 1.85713 10.1434 1.6013 10.1434 1.28571H12.1434C12.1434 0.496726 11.5038 -0.142866 10.7148 -0.142866V1.85713ZM10.1434 1.28571V8.99999H12.1434V1.28571H10.1434ZM10.1434 8.99999C10.1434 8.68441 10.3993 8.42857 10.7148 8.42857V10.4286C11.5038 10.4286 12.1434 9.78898 12.1434 8.99999H10.1434ZM10.7148 8.42857C9.92585 8.42857 9.28626 9.06817 9.28626 9.85715H11.2863C11.2863 10.1727 11.0304 10.4286 10.7148 10.4286V8.42857ZM9.28626 9.85715C9.28626 10.6461 9.92585 11.2857 10.7148 11.2857V9.28573C11.0304 9.28573 11.2863 9.54157 11.2863 9.85715H9.28626ZM10.7148 11.2857C11.9772 11.2857 13.0006 10.2624 13.0006 9.00002H11.0006C11.0006 9.15781 10.8726 9.28573 10.7148 9.28573V11.2857ZM13.0006 9.00002V1.28571H11.0006V9.00002H13.0006ZM13.0006 1.28571C13.0006 0.0233478 11.9772 -1 10.7148 -1V1C10.8726 1 11.0006 1.12792 11.0006 1.28571H13.0006Z" fill="#EF660D" mask="url(#path-3-inside-2)"/>
</svg>
