<svg width="64" height="64" viewBox="0 0 64 64" fill="none" xmlns="http://www.w3.org/2000/svg">
<path opacity="0.2" d="M42.8948 0H21.1052C19.6221 0 18.139 0.57041 17.1123 1.71123L1.71123 17.1123C0.57041 18.139 0 19.6221 0 21.1052V42.8948C0 44.3779 0.57041 45.861 1.71123 46.8877L17.1123 62.2888C18.139 63.3155 19.6221 64 21.1052 64H42.8948C44.3779 64 45.861 63.4296 46.8877 62.2888L62.2888 46.8877C63.3155 45.861 64 44.3779 64 42.8948V21.1052C64 19.6221 63.4296 18.139 62.2888 17.1123L46.8877 1.71123C45.861 0.57041 44.3779 0 42.8948 0Z" fill="#2A91E9"/>
<g clip-path="url(#clip0)">
<path d="M46.595 19.7464C46.2828 19.3561 45.9706 19.0439 45.7364 18.7317C44.2535 17.1707 42.3023 15.6878 40.195 16.0781C38.7901 16.3122 37.6974 17.4049 36.6828 18.4195C33.4828 21.6195 30.2828 24.8195 27.0828 28.0195C25.5218 29.6586 23.8828 31.2195 22.3218 32.8586C21.5413 33.639 20.6047 34.4195 19.9023 35.2781C19.3559 36.0586 19.1218 37.3073 18.8096 38.1659C17.9511 40.7415 17.0925 43.3171 16.234 45.8927C15.9998 46.439 15.8437 47.2195 16.312 47.6878C16.7803 48.1561 17.5608 48 18.1852 47.7659C21.073 46.8293 23.9608 45.8927 26.8486 44.8781C27.473 44.6439 28.1754 44.4098 28.7218 44.0976C29.1901 43.7854 29.5803 43.3951 29.9706 43.0049C35.1998 37.7756 40.4291 32.5464 45.6584 27.3171C46.7511 26.2244 47.8437 25.0537 48.0779 23.5707C48.1559 22.1659 47.4535 20.839 46.595 19.7464ZM25.6779 42.6927L19.1998 44.8781L21.3852 38.4L25.6779 42.6927ZM42.3803 27.0049L28.0193 41.4439L22.5559 35.9805L36.995 21.6195L42.3803 27.0049ZM44.7998 24.5854L44.1754 25.2098L38.712 19.7464L39.4145 19.2C40.273 18.3415 41.6779 18.3415 42.5364 19.2L44.8779 21.5415C45.6584 22.4 45.6584 23.7268 44.7998 24.5854Z" fill="#2A91E9"/>
</g>
<defs>
<clipPath id="clip0">
<rect width="32" height="32" fill="white" transform="translate(16 16)"/>
</clipPath>
</defs>
</svg>
